<?xml version="1.0" encoding="UTF-8"?>
<svg viewBox="" version="1.1" xmlns="http://www.w3.org/2000/svg" width="377" height="340">
<path d="M0 0 C5.44519886 4.26352539 10.27420287 8.36977112 14.15942383 14.15576172 C17.28596247 18.70747168 21.74694901 20.49970716 26.62817383 22.58935547 C36.19271858 26.85443394 44.71366917 32.21292699 53.09692383 38.42138672 C54.94480167 39.78849733 56.80999707 41.13375602 58.71411133 42.42138672 C64.02411961 46.06253526 66.93056777 50.32059539 70.26489258 55.76513672 C71.24387363 57.11943758 72.22304318 58.4736022 73.20239258 59.82763672 C75.89506882 63.81113198 77.65889437 68.01644807 79.45239258 72.45263672 C82.16445422 79.08454183 85.60558752 84.37898728 90.26953125 89.80883789 C102.6017841 104.25123152 106.65378151 122.97077121 105.44750977 141.55273438 C104.9579383 147.48387956 104.08429235 153.28121395 102.72192383 159.07373047 C101.38415004 164.87745584 101.08375953 170.45914108 100.88989258 176.39013672 C100.43315719 188.49418844 99.01534469 200.97509195 91.26489258 210.76513672 C90.60489258 210.76513672 89.94489258 210.76513672 89.26489258 210.76513672 C88.99161133 211.36455078 88.71833008 211.96396484 88.43676758 212.58154297 C84.73293433 219.48301893 77.91652171 222.13014457 70.79223633 224.46435547 C54.67927831 229.21002918 39.12917303 232.94171442 22.26489258 231.76513672 C22.12772827 232.71102661 22.12772827 232.71102661 21.98779297 233.67602539 C20.39711105 243.92186226 18.024943 253.97796459 15.70239258 264.07763672 C15.08226316 266.77774832 14.4632337 269.47808829 13.84767151 272.179245 C13.46752562 273.84719455 13.08482275 275.51456423 12.69908142 277.18122864 C11.89735822 280.69719182 11.21792167 284.11835007 10.74169922 287.69946289 C10.26489258 290.76513672 10.26489258 290.76513672 8.63989258 292.82763672 C5.04344567 294.24728682 2.82852373 293.05541696 -0.73510742 291.76513672 C-1.69545898 291.50345703 -2.65581055 291.24177734 -3.64526367 290.97216797 C-7.23170964 289.57114167 -9.08213641 287.85141071 -11.79760742 285.14013672 C-16.6847465 280.52487376 -21.70389288 277.12395214 -27.52026367 273.71435547 C-31.61269473 271.23303943 -35.39600476 268.42538032 -39.19995117 265.52685547 C-41.93771106 263.62434436 -44.74023537 262.22357701 -47.73510742 260.76513672 C-50.26978573 259.26719901 -52.76900683 257.72039349 -55.27026367 256.16748047 C-57.70158731 254.78420759 -60.11691554 253.74054154 -62.73510742 252.76513672 C-62.73510742 251.77513672 -62.73510742 250.78513672 -62.73510742 249.76513672 C-65.7842397 248.75402579 -65.7842397 248.75402579 -68.73510742 249.76513672 C-69.06510742 248.77513672 -69.39510742 247.78513672 -69.73510742 246.76513672 C-77.20071769 242.05365925 -85.73260717 239.04860347 -94.04760742 236.20263672 C-95.159021 235.81914062 -96.27043457 235.43564453 -97.41552734 235.04052734 C-108.34497656 231.37801151 -119.42430425 228.90959579 -130.73510742 226.76513672 C-131.59434814 226.5855542 -132.45358887 226.40597168 -133.33886719 226.22094727 C-149.6075174 223.12634004 -163.13638025 228.48217148 -176.73510742 236.76513672 C-177.52014648 237.35423828 -178.30518555 237.94333984 -179.11401367 238.55029297 C-180.73510742 239.76513672 -180.73510742 239.76513672 -182.73510742 239.76513672 C-183.00323242 240.48701172 -183.27135742 241.20888672 -183.54760742 241.95263672 C-185.85275448 247.41219554 -185.85275448 247.41219554 -187.73510742 249.76513672 C-190.84448242 249.90185547 -190.84448242 249.90185547 -193.73510742 249.76513672 C-194.17555358 239.93267079 -192.89795612 231.0411851 -190.79760742 221.45263672 C-190.24175383 218.85342049 -189.69343826 216.25271271 -189.14526367 213.65185547 C-188.766521 211.85820557 -188.766521 211.85820557 -188.38012695 210.02832031 C-187.6384569 206.27617727 -187.11597735 202.56901483 -186.73510742 198.76513672 C-187.41702148 198.51376953 -188.09893555 198.26240234 -188.80151367 198.00341797 C-192.23551427 196.55391306 -195.44212027 194.79912614 -198.67260742 192.95263672 C-199.26750977 192.62199219 -199.86241211 192.29134766 -200.4753418 191.95068359 C-211.04321659 185.93334723 -216.95990359 177.50633686 -221.57104492 166.33935547 C-222.82134645 163.57442692 -224.24465152 160.95439277 -225.71118164 158.29980469 C-231.13196117 148.45956715 -233.77874861 139.3706448 -235.60473633 128.26757812 C-236.3321328 123.8540639 -237.28665526 119.59562102 -238.42260742 115.26513672 C-243.038326 94.05247262 -239.92281234 74.21503605 -228.73510742 55.76513672 C-228.07124023 54.84087891 -227.40737305 53.91662109 -226.72338867 52.96435547 C-224.25851099 48.99827526 -222.90430968 44.98385482 -221.42260742 40.57763672 C-218.7274635 32.9373752 -215.64316976 26.27864001 -210.73510742 19.76513672 C-210.0312793 18.79060547 -210.0312793 18.79060547 -209.31323242 17.79638672 C-196.66487138 1.59511527 -173.64168593 -5.09723079 -154.24633789 -7.52270508 C-137.54712649 -9.49362138 -120.95694446 -10.40946022 -104.15112305 -10.36523438 C-101.73634571 -10.35986603 -99.32175426 -10.36522737 -96.90698242 -10.37158203 C-88.36006532 -10.37402125 -79.87389181 -10.18470267 -71.35107422 -9.50186157 C-67.27045151 -9.20272817 -63.62577582 -9.40306732 -59.61010742 -10.17236328 C-39.11650944 -13.96174555 -16.84518691 -12.82285533 0 0 Z " fill="#030303" transform="translate(254.735107421875,30.23486328125)"/>
<path d="M0 0 C4.49976163 3.37313465 8.735033 7.09984883 11.83764648 11.83276367 C15.74897565 17.65602701 19.583456 19.88738672 26.04296875 22.390625 C44.90751564 30.30673569 64.47001266 41.25358509 73.6328125 60.43359375 C74.58005971 62.88730639 75.06697346 65.11333871 75.48046875 67.703125 C76.13108831 71.14723038 76.87043424 72.53447202 79.66796875 74.640625 C89.77437146 82.27844918 95.91388329 96.93904715 98.60546875 108.953125 C99.26073297 117.97704943 99.31458321 126.16869286 96.10546875 134.703125 C93.26024104 142.27263237 93.23073374 149.30195425 93.61523438 157.32910156 C93.94318807 165.54285093 92.08320722 171.16158981 86.44921875 177.3203125 C80.12079834 182.92471871 72.29535259 184.74932101 64.1953125 186.375 C61.68815646 186.69174828 61.68815646 186.69174828 60.60546875 187.953125 C52.10811946 188.56767599 44.56676372 188.0349166 36.60546875 184.953125 C36.49332031 184.13134766 36.49332031 184.13134766 36.37890625 183.29296875 C34.10057281 169.55595829 28.56594791 158.52823595 19.60546875 147.953125 C18.83203125 147.00566406 18.05859375 146.05820313 17.26171875 145.08203125 C11.22216311 138.0130059 4.50863056 132.7954751 -3.39453125 127.953125 C-4.01102539 127.57414063 -4.62751953 127.19515625 -5.26269531 126.8046875 C-14.661531 121.10900263 -24.33368803 116.6328523 -34.57177734 112.66699219 C-36.92753165 111.7443796 -39.25142451 110.74974372 -41.58203125 109.765625 C-52.23991958 105.5698333 -63.51225139 103.12097906 -74.68310547 100.71557617 C-76.79012434 100.26118397 -78.89509013 99.79803791 -81 99.33398438 C-102.98163982 94.52649626 -126.52240532 93.15659793 -147.39453125 102.953125 C-148.29816406 103.3140625 -149.20179688 103.675 -150.1328125 104.046875 C-153.68515591 107.04090537 -153.77894809 110.56316607 -154.45703125 115.015625 C-154.61276611 115.9236084 -154.76850098 116.8315918 -154.92895508 117.76708984 C-155.44450118 120.82536183 -155.92293924 123.88777691 -156.39453125 126.953125 C-156.5740332 128.10312988 -156.75353516 129.25313477 -156.93847656 130.43798828 C-157.66837794 135.12610262 -158.39554275 139.81426733 -159.08813477 144.50805664 C-159.24467529 145.56500732 -159.40121582 146.62195801 -159.5625 147.7109375 C-159.69938232 148.6508252 -159.83626465 149.59071289 -159.97729492 150.55908203 C-160.39453125 152.953125 -160.39453125 152.953125 -161.39453125 155.953125 C-168.46454413 154.18562178 -174.14861892 150.20823028 -178.26953125 144.203125 C-180.08845013 141.07554501 -180.78660756 138.3294128 -181.33203125 134.765625 C-181.99851731 130.5613728 -181.99851731 130.5613728 -185.20703125 127.578125 C-185.73167969 127.20816406 -186.25632812 126.83820313 -186.796875 126.45703125 C-191.32132154 122.19807791 -193.29847845 115.4900489 -193.52734375 109.4453125 C-193.43898698 107.08046952 -193.34396216 104.71586603 -193.2421875 102.3515625 C-193.45107293 97.69181071 -195.11354479 94.4160647 -197.21484375 90.3203125 C-198.81372531 87.11196077 -199.21233725 84.53627367 -199.39453125 80.953125 C-199.46800781 79.93605469 -199.54148438 78.91898437 -199.6171875 77.87109375 C-200.22143328 63.81850607 -195.21733454 53.64566144 -186.39453125 42.953125 C-185.73453125 42.293125 -185.07453125 41.633125 -184.39453125 40.953125 C-184.0571812 39.13085807 -183.79787685 37.29374242 -183.58203125 35.453125 C-181.86203631 24.53376319 -176.66912408 16.26055763 -168.39453125 8.953125 C-155.60278895 0.00353449 -141.83900867 -3.6490415 -126.39453125 -5.046875 C-125.01322021 -5.17823853 -125.01322021 -5.17823853 -123.60400391 -5.31225586 C-113.29791558 -6.17739926 -103.01060796 -6.23301404 -92.67382812 -6.23217773 C-89.66391779 -6.23436094 -86.65437702 -6.25257461 -83.64453125 -6.27148438 C-56.72170605 -6.34908371 -56.72170605 -6.34908371 -46.05175781 -3.39916992 C-43.33229972 -2.82106473 -41.67509967 -4.61489018 -39.39453125 -6.046875 C-25.86453819 -11.51644666 -11.61822625 -7.80010676 0 0 Z " fill="#FDFDFD" transform="translate(237.39453125,50.046875)"/>
<path d="M0 0 C1.50929077 0.01691895 1.50929077 0.01691895 3.04907227 0.03417969 C16.38494766 0.27861892 28.8592265 2.81985667 41.6875 6.3125 C42.5336084 6.5398584 43.3797168 6.7672168 44.25146484 7.00146484 C54.69285098 9.8230014 64.85780074 12.73997821 74.6875 17.3125 C76.17157159 17.96683443 77.65597565 18.62041504 79.140625 19.2734375 C98.87904818 28.10905257 116.6154645 39.88136124 125.6875 60.3125 C130.4213887 72.82922265 130.16824202 83.20485777 127.875 96.1875 C127.69485352 97.23873047 127.51470703 98.28996094 127.32910156 99.37304688 C126.09090272 106.44283353 124.68475863 113.41287927 122.6875 120.3125 C121.5 119.52083333 120.3125 118.72916667 119.125 117.9375 C118.29484375 117.38707031 117.4646875 116.83664062 116.609375 116.26953125 C114.54613749 114.88760345 112.49512373 113.48734106 110.453125 112.07421875 C87.97863487 96.59961879 63.4814755 86.03021071 37.6875 77.3125 C36.54539062 76.89613281 35.40328125 76.47976562 34.2265625 76.05078125 C18.76742573 70.56262289 2.23930355 67.11317057 -14.1875 67.1875 C-15.03441406 67.18363281 -15.88132812 67.17976563 -16.75390625 67.17578125 C-22.34774562 67.18434762 -27.76321178 67.60622695 -33.3125 68.3125 C-30.82947622 46.4567178 -26.43367918 24.90437302 -22.3125 3.3125 C-14.7399046 0.87973354 -7.93992988 -0.14812046 0 0 Z " fill="#FDFDFD" transform="translate(125.3125,165.6875)"/>
<path d="M0 0 C5.44519886 4.26352539 10.27420287 8.36977112 14.15942383 14.15576172 C17.28596247 18.70747168 21.74694901 20.49970716 26.62817383 22.58935547 C36.19271858 26.85443394 44.71366917 32.21292699 53.09692383 38.42138672 C54.94480167 39.78849733 56.80999707 41.13375602 58.71411133 42.42138672 C64.02411961 46.06253526 66.93056777 50.32059539 70.26489258 55.76513672 C71.24387363 57.11943758 72.22304318 58.4736022 73.20239258 59.82763672 C75.89506882 63.81113198 77.65889437 68.01644807 79.45239258 72.45263672 C82.16445422 79.08454183 85.60558752 84.37898728 90.26953125 89.80883789 C102.6017841 104.25123152 106.65378151 122.97077121 105.44750977 141.55273438 C104.9579383 147.48387956 104.08429235 153.28121395 102.72192383 159.07373047 C101.38415004 164.87745584 101.08375953 170.45914108 100.88989258 176.39013672 C100.43315719 188.49418844 99.01534469 200.97509195 91.26489258 210.76513672 C90.60489258 210.76513672 89.94489258 210.76513672 89.26489258 210.76513672 C88.99161133 211.36455078 88.71833008 211.96396484 88.43676758 212.58154297 C84.73293433 219.48301893 77.91652171 222.13014457 70.79223633 224.46435547 C54.67927831 229.21002918 39.12917303 232.94171442 22.26489258 231.76513672 C22.12772827 232.71102661 22.12772827 232.71102661 21.98779297 233.67602539 C20.39711105 243.92186226 18.024943 253.97796459 15.70239258 264.07763672 C15.08226316 266.77774832 14.4632337 269.47808829 13.84767151 272.179245 C13.46752562 273.84719455 13.08482275 275.51456423 12.69908142 277.18122864 C11.89735822 280.69719182 11.21792167 284.11835007 10.74169922 287.69946289 C10.26489258 290.76513672 10.26489258 290.76513672 8.63989258 292.82763672 C5.04344567 294.24728682 2.82852373 293.05541696 -0.73510742 291.76513672 C-1.69545898 291.50345703 -2.65581055 291.24177734 -3.64526367 290.97216797 C-7.23170964 289.57114167 -9.08213641 287.85141071 -11.79760742 285.14013672 C-16.6847465 280.52487376 -21.70389288 277.12395214 -27.52026367 273.71435547 C-31.61269473 271.23303943 -35.39600476 268.42538032 -39.19995117 265.52685547 C-41.93771106 263.62434436 -44.74023537 262.22357701 -47.73510742 260.76513672 C-50.26978573 259.26719901 -52.76900683 257.72039349 -55.27026367 256.16748047 C-57.70158731 254.78420759 -60.11691554 253.74054154 -62.73510742 252.76513672 C-62.73510742 251.77513672 -62.73510742 250.78513672 -62.73510742 249.76513672 C-65.7842397 248.75402579 -65.7842397 248.75402579 -68.73510742 249.76513672 C-69.06510742 248.77513672 -69.39510742 247.78513672 -69.73510742 246.76513672 C-77.20071769 242.05365925 -85.73260717 239.04860347 -94.04760742 236.20263672 C-95.159021 235.81914062 -96.27043457 235.43564453 -97.41552734 235.04052734 C-108.34497656 231.37801151 -119.42430425 228.90959579 -130.73510742 226.76513672 C-131.59434814 226.5855542 -132.45358887 226.40597168 -133.33886719 226.22094727 C-149.6075174 223.12634004 -163.13638025 228.48217148 -176.73510742 236.76513672 C-177.52014648 237.35423828 -178.30518555 237.94333984 -179.11401367 238.55029297 C-180.73510742 239.76513672 -180.73510742 239.76513672 -182.73510742 239.76513672 C-183.00323242 240.48701172 -183.27135742 241.20888672 -183.54760742 241.95263672 C-185.85275448 247.41219554 -185.85275448 247.41219554 -187.73510742 249.76513672 C-190.84448242 249.90185547 -190.84448242 249.90185547 -193.73510742 249.76513672 C-194.17555358 239.93267079 -192.89795612 231.0411851 -190.79760742 221.45263672 C-190.24175383 218.85342049 -189.69343826 216.25271271 -189.14526367 213.65185547 C-188.766521 211.85820557 -188.766521 211.85820557 -188.38012695 210.02832031 C-187.6384569 206.27617727 -187.11597735 202.56901483 -186.73510742 198.76513672 C-187.41702148 198.51376953 -188.09893555 198.26240234 -188.80151367 198.00341797 C-192.23551427 196.55391306 -195.44212027 194.79912614 -198.67260742 192.95263672 C-199.26750977 192.62199219 -199.86241211 192.29134766 -200.4753418 191.95068359 C-211.04321659 185.93334723 -216.95990359 177.50633686 -221.57104492 166.33935547 C-222.82134645 163.57442692 -224.24465152 160.95439277 -225.71118164 158.29980469 C-231.13196117 148.45956715 -233.77874861 139.3706448 -235.60473633 128.26757812 C-236.3321328 123.8540639 -237.28665526 119.59562102 -238.42260742 115.26513672 C-243.038326 94.05247262 -239.92281234 74.21503605 -228.73510742 55.76513672 C-228.07124023 54.84087891 -227.40737305 53.91662109 -226.72338867 52.96435547 C-224.25851099 48.99827526 -222.90430968 44.98385482 -221.42260742 40.57763672 C-218.7274635 32.9373752 -215.64316976 26.27864001 -210.73510742 19.76513672 C-210.0312793 18.79060547 -210.0312793 18.79060547 -209.31323242 17.79638672 C-196.66487138 1.59511527 -173.64168593 -5.09723079 -154.24633789 -7.52270508 C-137.54712649 -9.49362138 -120.95694446 -10.40946022 -104.15112305 -10.36523438 C-101.73634571 -10.35986603 -99.32175426 -10.36522737 -96.90698242 -10.37158203 C-88.36006532 -10.37402125 -79.87389181 -10.18470267 -71.35107422 -9.50186157 C-67.27045151 -9.20272817 -63.62577582 -9.40306732 -59.61010742 -10.17236328 C-39.11650944 -13.96174555 -16.84518691 -12.82285533 0 0 Z M-55.98510742 -7.67236328 C-61.40574731 -6.26286518 -66.02541686 -6.17735349 -71.54760742 -6.54736328 C-139.24985092 -11.59473939 -139.24985092 -11.59473939 -199.50073242 13.75341797 C-200.60674805 14.74921875 -200.60674805 14.74921875 -201.73510742 15.76513672 C-202.43120117 16.35681641 -203.12729492 16.94849609 -203.84448242 17.55810547 C-212.91142766 25.79918554 -217.9607014 36.67350514 -221.01318359 48.34716797 C-222.18558775 52.69030469 -223.77109292 55.4108226 -226.73510742 58.76513672 C-233.43804801 68.28331236 -237.25940275 79.1103723 -237.73510742 90.76513672 C-237.81245117 92.14958984 -237.81245117 92.14958984 -237.89135742 93.56201172 C-238.17447548 102.66897604 -236.25890275 110.70244048 -233.11010742 119.20263672 C-231.82029209 122.86703515 -231.49554208 126.20179998 -231.29760742 130.07763672 C-230.62812174 141.12415044 -226.7232943 152.77694984 -218.73510742 160.76513672 C-218.02416992 162.64794922 -218.02416992 162.64794922 -217.36010742 164.89013672 C-213.04169318 178.14174121 -205.19684468 186.37898165 -192.73510742 192.76513672 C-189.76584854 194.1792793 -186.77731538 195.51592089 -183.73510742 196.76513672 C-184.37186685 202.34129638 -185.2674334 207.78569551 -186.39916992 213.28076172 C-186.71981946 214.87704822 -187.04012197 216.47340446 -187.36010742 218.06982422 C-187.86121985 220.55467107 -188.36498331 223.03888703 -188.87475586 225.52197266 C-189.36977974 227.94008357 -189.85401565 230.36015596 -190.33666992 232.78076172 C-190.49181061 233.5224762 -190.64695129 234.26419067 -190.80679321 235.02838135 C-191.78080876 239.95184191 -191.78080876 239.95184191 -190.73510742 244.76513672 C-190.30842773 244.20826172 -189.88174805 243.65138672 -189.44213867 243.07763672 C-179.59720045 231.06072244 -166.83175786 225.13153155 -151.63842773 223.54638672 C-132.73996358 222.14973348 -111.94980476 226.34707683 -94.54370117 233.62451172 C-91.90222082 234.69726869 -89.23621427 235.66789836 -86.55175781 236.62670898 C-59.17226115 246.51059367 -35.15057261 260.08169834 -12.94897461 278.77197266 C-7.22496866 283.52223966 -1.37065257 287.36426001 5.26489258 290.76513672 C10.26531273 276.21202712 13.72197022 261.29115758 16.63989258 246.20263672 C16.772948 245.52097443 16.90600342 244.83931213 17.04309082 244.13699341 C18.81480562 235.51719123 18.81480562 235.51719123 19.26489258 226.76513672 C19.83594727 226.90951172 20.40700195 227.05388672 20.99536133 227.20263672 C33.95057403 230.16853597 44.72783352 228.50298379 57.26489258 224.76513672 C58.65820996 224.4416037 60.05358707 224.12655159 61.45239258 223.82763672 C73.97378081 220.33806951 84.37098088 215.0797206 91.26489258 203.76513672 C96.06785692 194.87316219 97.26233636 187.10795955 97.50537109 177.15454102 C97.71776029 169.00239578 98.31214579 161.36567569 100.32739258 153.45263672 C103.46223947 140.95914531 103.52358624 129.0412841 99.26489258 116.76513672 C98.88204102 115.37488281 98.88204102 115.37488281 98.49145508 113.95654297 C95.21197721 102.62880519 89.02396825 92.79448273 81.38989258 83.89013672 C78.05317843 79.98865921 76.32214255 76.89996834 74.96801758 71.99560547 C68.37136479 51.06955689 45.2538984 37.44799749 27.16088867 27.75 C25.37607601 26.82289026 23.56518823 25.94648045 21.75317383 25.07373047 C14.96419334 21.73949745 10.24881982 17.99055376 5.34423828 12.31982422 C-4.09009451 1.4814617 -18.19706468 -7.32375907 -32.73510742 -9.23486328 C-35.41664243 -9.38011309 -38.05341189 -9.47254263 -40.73510742 -9.48486328 C-41.49275391 -9.48881104 -42.25040039 -9.49275879 -43.03100586 -9.49682617 C-47.60091315 -9.45004683 -51.56454809 -8.93951314 -55.98510742 -7.67236328 Z " fill="#F5F5F5" transform="translate(254.735107421875,30.23486328125)"/>
<path d="M0 0 C1.21526367 0.0923291 1.21526367 0.0923291 2.45507812 0.18652344 C7.90580911 0.73893141 11.52407357 2.14943227 16.0625 5.25 C17.79119779 8.70739557 17.55216895 12.46975568 17.0625 16.25 C15.26856332 19.12029869 14.07986724 20.74131638 11.0625 22.25 C9.41755477 22.26635573 7.77171597 22.21427923 6.12890625 22.12890625 C5.10071777 22.08024414 4.0725293 22.03158203 3.01318359 21.98144531 C1.89508301 21.92569336 0.77698242 21.86994141 -0.375 21.8125 C-29.37571424 20.14151367 -29.37571424 20.14151367 -57.9375 24.25 C-59.63519531 24.66765625 -59.63519531 24.66765625 -61.3671875 25.09375 C-75.17228347 28.86172914 -85.42320278 35.66882263 -93.25 47.6875 C-94.9375 50.25 -94.9375 50.25 -97.9375 52.25 C-104.88427871 52.92226891 -104.88427871 52.92226891 -108.875 50.375 C-112.1513351 46.99938202 -112.46843185 44.39460836 -112.40234375 39.8125 C-111.47800709 34.71699705 -108.21522189 31.11368335 -104.9375 27.25 C-104.29683594 26.48558594 -103.65617187 25.72117187 -102.99609375 24.93359375 C-94.3078444 15.4540048 -82.2668413 8.70091944 -69.9375 5.25 C-68.69871094 4.90324219 -67.45992187 4.55648437 -66.18359375 4.19921875 C-44.6296214 -1.48638906 -22.11163198 -1.90163328 0 0 Z " fill="#030303" transform="translate(174.9375,49.75)"/>
<path d="M0 0 C3.5386994 1.65139305 4.81070153 2.71605229 7 6 C7.30078125 8.15625 7.30078125 8.15625 7.3125 10.5 C7.32925781 11.2734375 7.34601563 12.046875 7.36328125 12.84375 C6.91516359 15.50354514 5.8791438 16.15593355 4 18 C4.25531709 21.57443924 4.86788359 24.60365077 6 28 C6.57279236 35.1026253 6.57279236 35.1026253 4.125 38.9375 C1.26777694 41.71068709 -0.42300746 42.20503898 -4.3125 42.375 C-7.83187989 42.31286007 -8.84509867 42.10439003 -11.875 40.0625 C-17.37592902 32.13469054 -18.14972644 23.48792941 -17 14 C-14.23177725 5.30800842 -9.90899096 -1.23862387 0 0 Z " fill="#050505" transform="translate(62,104)"/>
<path d="M0 0 C0.80808105 -0.00064453 1.61616211 -0.00128906 2.44873047 -0.00195312 C8.64772461 0.05250001 14.52997893 0.69930097 20.5625 2.1875 C20.5625 2.8475 20.5625 3.5075 20.5625 4.1875 C20.00046875 4.1153125 19.4384375 4.043125 18.859375 3.96875 C9.1106218 2.89220057 -0.64501984 3.10118039 -10.4375 3.1875 C-10.4375 2.5275 -10.4375 1.8675 -10.4375 1.1875 C-7.17169151 -0.44540425 -3.58643616 -0.00289754 0 0 Z " fill="#E0E0E0" transform="translate(109.4375,252.8125)"/>
</svg>
