<?xml version="1.0" standalone="no"?>
<!DOCTYPE svg PUBLIC "-//W3C//DTD SVG 20010904//EN"
 "http://www.w3.org/TR/2001/REC-SVG-20010904/DTD/svg10.dtd">
<svg version="1.0" xmlns="http://www.w3.org/2000/svg"
 width="500.000000pt" height="500.000000pt" viewBox="50 50 400 400"
 preserveAspectRatio="xMidYMid meet">

<g transform="translate(0.000000,500.000000) scale(0.100000,-0.100000)"
fill="#000000" stroke="none">
<path d="M2424 3891 c-23 -10 -61 -22 -85 -26 -97 -15 -256 -73 -306 -111 -74
-56 -106 -148 -107 -299 0 -51 6 -71 38 -130 59 -110 140 -185 201 -185 22 0
25 -4 25 -37 0 -21 3 -54 6 -75 l6 -36 30 33 c45 52 105 70 223 69 117 -1 191
-14 298 -55 116 -43 111 -47 104 76 l-6 105 25 0 c35 0 113 42 149 80 26 27
30 39 29 83 -1 78 -21 193 -40 229 -9 18 -51 66 -93 107 -78 76 -148 117 -218
128 -21 4 -65 19 -98 35 -70 33 -123 35 -181 9z m173 -78 c15 -11 55 -25 88
-32 76 -17 127 -42 157 -79 12 -16 35 -37 50 -47 42 -26 72 -83 80 -150 4 -33
10 -76 14 -96 7 -42 -7 -75 -39 -90 -12 -5 -33 -16 -47 -24 -38 -22 -65 -18
-81 11 -26 49 -99 103 -168 125 -51 16 -94 21 -191 22 -140 1 -218 -16 -268
-57 -28 -25 -28 -25 -20 -102 4 -42 6 -79 4 -82 -12 -11 -58 11 -68 33 -6 14
-19 27 -28 30 -9 3 -23 18 -30 33 -7 15 -17 36 -23 47 -36 68 -39 78 -33 123
23 173 31 195 90 231 44 27 193 78 268 91 34 7 69 16 76 22 36 30 118 26 169
-9z m-6 -437 c133 -31 185 -85 195 -205 7 -71 6 -74 -12 -67 -63 26 -163 47
-259 56 -105 10 -126 9 -236 -16 l-26 -6 -9 102 c-8 81 -7 104 4 112 42 36
238 49 343 24z"/>
<path d="M2290 3766 c-116 -33 -196 -85 -231 -150 -19 -36 -22 -50 -13 -63 17
-28 47 -22 63 12 32 70 97 111 221 140 76 18 103 36 93 61 -6 17 -70 17 -133
0z"/>
<path d="M2022 3498 c-27 -27 1 -118 37 -118 24 0 45 25 35 42 -4 7 -10 28
-14 48 -6 38 -34 52 -58 28z"/>
<path d="M2910 3015 c-6 -8 -15 -56 -18 -107 l-7 -93 -66 3 c-62 4 -68 2 -102
-28 -64 -56 -85 -171 -42 -236 31 -48 73 -66 140 -59 33 4 76 6 95 6 69 0 70
4 70 264 0 212 -2 233 -18 248 -23 21 -36 21 -52 2z m-66 -326 c15 -11 26 -31
26 -44 0 -18 -8 -25 -39 -32 -21 -6 -45 -7 -51 -3 -22 14 4 100 30 100 4 0 19
-9 34 -21z"/>
<path d="M1730 2969 c-60 -24 -110 -109 -110 -187 0 -14 -9 -39 -20 -57 l-21
-33 24 -26 c14 -15 27 -43 31 -65 8 -51 44 -131 62 -138 29 -11 39 16 39 100
l0 82 44 6 c95 12 95 99 0 103 -41 1 -44 3 -47 32 -5 47 30 84 78 84 75 0 87
56 19 92 -37 20 -62 22 -99 7z"/>
<path d="M3057 2933 c-13 -13 -7 -61 9 -67 40 -15 72 14 59 54 -6 20 -53 29
-68 13z"/>
<path d="M3255 2819 c-23 -21 -40 -48 -50 -82 -20 -68 -19 -103 6 -153 37 -77
157 -111 215 -61 45 39 21 67 -71 83 -37 6 -38 7 -15 14 14 5 42 11 62 15 81
13 118 83 76 144 -31 45 -82 71 -140 71 -39 0 -54 -6 -83 -31z m136 -69 l24
-19 -30 -1 c-16 0 -40 -3 -52 -6 -27 -7 -30 8 -7 30 21 21 37 20 65 -4z"/>
<path d="M2014 2781 c-64 -39 -113 -137 -98 -196 15 -61 135 -109 209 -85 70
23 132 131 118 204 -8 40 -49 74 -104 85 -69 15 -89 14 -125 -8z m97 -81 c46
-25 3 -108 -49 -95 -42 10 -45 20 -23 64 22 42 38 49 72 31z"/>
<path d="M2362 2770 c-51 -37 -81 -96 -82 -158 0 -61 35 -94 117 -111 57 -13
65 -12 105 8 80 38 129 152 94 220 -21 39 -61 60 -133 67 -54 6 -61 4 -101
-26z m109 -70 c11 -6 19 -21 19 -35 0 -30 -36 -69 -57 -61 -8 3 -21 6 -29 6
-21 0 -17 43 7 74 23 29 31 31 60 16z"/>
<path d="M3077 2786 c-13 -13 -38 -149 -40 -220 -2 -63 48 -89 79 -41 12 18
18 57 22 133 4 93 2 110 -12 125 -21 21 -30 21 -49 3z"/>
<path d="M2250 2439 c-60 -24 -110 -109 -110 -187 0 -14 -9 -39 -20 -57 l-21
-33 24 -26 c14 -15 27 -43 31 -65 8 -51 44 -131 62 -138 29 -11 39 16 39 100
l0 82 44 6 c95 12 95 99 0 103 -41 1 -44 3 -47 32 -5 47 30 84 78 84 75 0 87
56 19 92 -37 20 -62 22 -99 7z"/>
<path d="M2470 2390 c-14 -26 3 -60 30 -60 21 0 50 25 50 44 0 37 -62 49 -80
16z"/>
<path d="M2497 2258 c-11 -9 -21 -48 -33 -131 -16 -113 -16 -118 2 -138 23
-26 55 -21 71 11 17 33 18 241 1 258 -15 15 -20 15 -41 0z"/>
<path d="M2658 2259 c-22 -12 -23 -44 -3 -83 20 -38 20 -40 -15 -88 -38 -52
-36 -82 4 -86 20 -3 36 4 56 23 l28 27 33 -41 c36 -46 66 -58 98 -41 30 16 27
58 -10 114 l-32 47 37 38 c67 68 39 108 -45 65 l-50 -25 -35 31 c-38 33 -41
34 -66 19z"/>
<path d="M2910 1713 c1 -68 30 -130 30 -65 1 26 1 26 15 8 18 -24 34 -12 18
13 -7 10 -9 28 -6 40 7 26 -5 27 -23 4 -13 -17 -13 -17 -14 0 0 9 -4 17 -10
17 -5 0 -10 -8 -10 -17z"/>
<path d="M2029 1674 c-21 -47 -18 -73 5 -41 7 9 21 17 30 17 9 0 16 5 16 10 0
6 -4 10 -10 10 -5 0 -10 7 -10 15 0 8 6 12 15 9 21 -8 41 6 24 17 -31 19 -50
9 -70 -37z"/>
<path d="M2130 1690 c-41 -41 -14 -104 34 -82 33 15 45 70 20 89 -24 17 -30
17 -54 -7z m44 -19 c8 -12 -19 -45 -32 -38 -14 9 -3 47 14 47 7 0 15 -4 18 -9z"/>
<path d="M2870 1673 c0 -21 -3 -24 -12 -15 -21 21 -28 13 -28 -33 0 -25 5 -45
10 -45 6 0 10 10 10 22 0 20 1 21 20 3 20 -18 20 -17 20 38 0 32 -4 57 -10 57
-5 0 -10 -12 -10 -27z"/>
<path d="M2225 1666 c-11 -17 -15 -35 -11 -52 9 -35 54 -30 76 8 29 53 -32 94
-65 44z m45 -20 c0 -28 -17 -43 -32 -28 -7 7 -6 17 1 31 16 28 31 27 31 -3z"/>
<path d="M2776 1682 c-8 -14 5 -102 15 -102 5 0 9 19 9 43 0 44 -13 76 -24 59z"/>
<path d="M2316 1649 c-11 -54 -8 -69 14 -69 28 0 60 34 53 58 -4 16 -40 42
-57 42 -2 0 -6 -14 -10 -31z m44 -24 c0 -7 -7 -16 -16 -19 -12 -5 -15 -2 -10
10 3 8 6 20 6 25 0 6 5 7 10 4 6 -3 10 -12 10 -20z"/>
<path d="M2590 1620 c0 -56 15 -65 50 -30 25 25 25 42 2 63 -36 32 -52 22 -52
-33z m39 16 c9 -10 8 -16 -4 -26 -13 -11 -15 -8 -15 14 0 30 3 32 19 12z"/>
<path d="M2686 1655 c-10 -26 -7 -95 4 -95 6 0 10 9 10 20 0 24 13 26 30 5 7
-8 16 -12 22 -9 5 3 4 12 -4 21 -7 9 -13 28 -13 42 0 31 -38 43 -49 16z"/>
<path d="M2464 1612 c-13 -10 -15 -16 -6 -19 6 -3 12 -11 12 -19 0 -19 7 -18
30 4 19 17 19 19 1 34 -16 13 -20 13 -37 0z"/>
</g>
</svg>
